<svg width="24" height="24" viewBox="0 0 24 24" fill="none" xmlns="http://www.w3.org/2000/svg">
<g clip-path="url(#clip0_4564_6318)">
<path d="M22.8661 10.9832L12.9974 1.13336C12.7149 0.850862 12.3759 0.700195 11.9804 0.700195C11.5849 0.700195 11.2271 0.850862 10.9446 1.13336L8.89172 3.16736L11.4907 5.76636C11.8109 5.6722 12.1311 5.65336 12.4512 5.7287C12.7714 5.80403 13.0351 5.9547 13.2799 6.1807C13.5247 6.42553 13.6754 6.70803 13.7507 7.0282C13.8072 7.34836 13.7884 7.66853 13.6942 7.96986L16.1991 10.4747C16.5004 10.3805 16.8206 10.3617 17.1407 10.4182C17.4609 10.4935 17.7434 10.6442 17.9882 10.889C18.3272 11.228 18.4967 11.6424 18.4967 12.1132C18.4967 12.584 18.3272 12.9984 17.9882 13.3374C17.6492 13.6764 17.2349 13.8459 16.7641 13.8459C16.2932 13.8459 15.8789 13.6764 15.5399 13.3374C15.2951 13.0925 15.1256 12.7912 15.0691 12.4522C14.9937 12.1132 15.0126 11.793 15.1444 11.4729L12.8091 9.13753V15.2772C12.9786 15.3714 13.1292 15.4655 13.2611 15.5974C13.6001 15.9364 13.7696 16.3507 13.7696 16.8215C13.7696 17.3112 13.6001 17.7255 13.2611 18.0457C12.9221 18.3847 12.5077 18.5542 12.0369 18.5542C11.5661 18.5542 11.1517 18.3847 10.8127 18.0457C10.4737 17.7067 10.3042 17.2924 10.3042 16.8215C10.3042 16.3507 10.4737 15.9364 10.8127 15.5974C10.9822 15.4279 11.1706 15.3149 11.3777 15.2207V9.02453C11.1706 8.93036 10.9822 8.79853 10.8127 8.64786C10.5679 8.40303 10.3984 8.1017 10.3419 7.74386C10.2854 7.40486 10.3042 7.06586 10.4361 6.7457L7.89355 4.18436L1.13239 10.9455C0.849885 11.228 0.699219 11.5859 0.699219 11.9814C0.699219 12.3769 0.849885 12.7159 1.13239 12.9984L11.0011 22.867C11.2836 23.1495 11.6226 23.3002 12.0181 23.3002C12.4136 23.3002 12.7714 23.1495 13.0539 22.867L22.8661 13.0549C23.1486 12.7724 23.2992 12.4145 23.2992 12.019C23.2992 11.6235 23.1486 11.2657 22.8661 10.9832Z" fill="#F05032"/>
</g>
<defs>
<clipPath id="clip0_4564_6318">
<rect width="24" height="24" fill="white"/>
</clipPath>
</defs>
</svg>
